<svg width="44" height="45" viewBox="0 0 44 45" fill="none" xmlns="http://www.w3.org/2000/svg">
<g id="artificial-intelligence" clip-path="url(#clip0_13_6517)">
<path id="Vector" d="M40.9959 22.9328L41.8182 21.1331C41.8586 21.0447 41.8795 20.9486 41.8795 20.8513L41.8788 17.0928C41.6662 11.9674 39.5738 7.6538 35.8275 4.61841C32.2978 1.82826 27.8768 0.41133 23.3829 0.629896C23.3673 0.629234 15.3061 0.61549 15.1541 0.61549C12.3359 0.638335 9.58361 1.47075 7.22511 3.01359C4.86661 4.55642 3.00127 6.74466 1.85127 9.31767C0.701272 11.8907 0.315073 14.74 0.738676 17.5263C1.16228 20.3126 2.37783 22.9184 4.24055 25.0334C4.58118 25.4197 4.92167 25.7871 5.25094 26.1425C6.90442 27.9268 8.21196 29.3377 8.33998 31.7086V33.8496C8.33999 34.2094 8.48291 34.5544 8.73731 34.8088C8.9917 35.0632 9.33673 35.2061 9.6965 35.2061H20.6001C20.7035 35.2053 20.8064 35.1925 20.9069 35.1682C22.8549 41.071 33.0444 44.0233 35.6421 44.0233C36.2557 44.0228 36.8579 43.857 37.3854 43.5433C37.9166 43.2248 38.3561 42.774 38.6609 42.2349C38.9657 41.6957 39.1254 41.0867 39.1244 40.4673V39.0519L40.2464 38.1638C40.383 38.0557 40.4728 37.8993 40.4971 37.7268C40.5215 37.5543 40.4786 37.3791 40.3773 37.2374L39.5255 36.0463L40.8803 35.5755C41.0492 35.5169 41.1881 35.3939 41.2668 35.2334C41.3455 35.0728 41.3577 34.8877 41.3006 34.7183L40.5819 32.5855H42.5508C42.7813 32.5849 43.0083 32.5283 43.2121 32.4206C43.416 32.313 43.5907 32.1574 43.7212 31.9674C43.8554 31.7726 43.9403 31.5483 43.9688 31.3135C43.9973 31.0787 43.9685 30.8405 43.8848 30.6193L40.9959 22.9328ZM20.6117 31.6737H20.6001V33.8496H9.69648V31.6737C9.52744 28.2488 7.34187 26.4995 5.25796 24.1362C3.5679 22.217 2.46484 19.8527 2.08007 17.3245C1.6953 14.7964 2.04502 12.2109 3.08761 9.8758C4.1302 7.54072 5.82176 5.55436 7.96096 4.15313C10.1002 2.75191 12.5969 1.99482 15.1541 1.97198C15.2922 1.97198 15.4316 1.97414 15.5707 1.97843C18.0909 2.07969 20.5308 2.89302 22.6078 4.32417C24.6847 5.75531 26.3136 7.74568 27.3057 10.0646C28.2978 12.3836 28.6125 14.9362 28.2133 17.4267C27.8141 19.9172 26.7174 22.2436 25.0502 24.1363C23.0261 26.4316 20.7748 28.3691 20.6117 31.6737ZM42.6044 31.1969C42.5992 31.2066 42.5915 31.2147 42.582 31.2204C42.5726 31.226 42.5618 31.229 42.5508 31.229H39.6377C39.5301 31.2291 39.424 31.2547 39.3282 31.3038C39.2324 31.353 39.1497 31.4242 39.0869 31.5116C39.0241 31.5991 38.983 31.7002 38.967 31.8067C38.951 31.9131 38.9606 32.0218 38.9949 32.1239L39.8003 34.5146L38.2236 35.0626C38.124 35.0971 38.0338 35.1545 37.9602 35.23C37.8866 35.3056 37.8317 35.3972 37.7997 35.4977C37.7677 35.5982 37.7597 35.7048 37.7761 35.809C37.7925 35.9131 37.8331 36.012 37.8944 36.0978L38.8979 37.501L38.0252 38.1918C37.945 38.2553 37.8802 38.3362 37.8356 38.4283C37.791 38.5204 37.7679 38.6214 37.7679 38.7237V40.4673C37.7694 40.8513 37.6712 41.229 37.4829 41.5636C37.2947 41.8982 37.0228 42.1782 36.6939 42.3762C36.3758 42.5659 36.0124 42.6662 35.6421 42.6668C32.8615 42.6668 22.3742 39.2395 21.9566 33.5218V31.8508C21.9614 31.8145 21.9647 31.7778 21.9666 31.7406C22.0823 29.3956 23.5169 27.8299 25.178 26.017C25.4694 25.699 25.7707 25.3702 26.0676 25.0335C27.5753 23.3205 28.6641 21.2804 29.2479 19.0744C29.8317 16.8683 29.8946 14.5567 29.4315 12.3222C28.9685 10.0877 27.9922 7.99144 26.5798 6.19905C25.1674 4.40666 23.3576 2.96722 21.2934 1.99444C22.1158 1.99512 23.3948 1.98805 23.4253 1.98506C31.5948 1.67939 40.0931 6.78148 40.523 17.1209V20.7038L39.6447 22.6256C39.6076 22.7069 39.5869 22.7947 39.5838 22.884C39.5808 22.9733 39.5954 23.0624 39.6268 23.146L42.6157 31.0986C42.6223 31.1145 42.6248 31.132 42.6228 31.1492C42.6208 31.1664 42.6145 31.1828 42.6044 31.1969Z" fill="#026C7C"/>
<path id="Vector_2" d="M20.5799 36.9017C20.5799 36.7218 20.5085 36.5493 20.3813 36.4221C20.2541 36.2949 20.0816 36.2235 19.9017 36.2234H10.4062C10.2263 36.2234 10.0538 36.2949 9.92657 36.4221C9.79938 36.5493 9.72792 36.7218 9.72792 36.9017C9.72792 37.0816 9.79938 37.2541 9.92657 37.3813C10.0538 37.5085 10.2263 37.5799 10.4062 37.5799H19.9017C20.0816 37.5799 20.2541 37.5085 20.3813 37.3813C20.5085 37.2541 20.5799 37.0816 20.5799 36.9017ZM11.7627 38.9364C11.5828 38.9364 11.4103 39.0079 11.2831 39.1351C11.1559 39.2623 11.0844 39.4348 11.0844 39.6147C11.0844 39.7946 11.1559 39.9671 11.2831 40.0943C11.4103 40.2215 11.5828 40.2929 11.7627 40.2929H18.5452C18.7251 40.2929 18.8976 40.2215 19.0248 40.0943C19.152 39.9671 19.2234 39.7946 19.2234 39.6147C19.2234 39.4348 19.152 39.2623 19.0248 39.1351C18.8976 39.0079 18.7251 38.9364 18.5452 38.9364H11.7627ZM15.1539 4.68494C13.1418 4.68495 11.1748 5.28164 9.50175 6.39955C7.8287 7.51746 6.52472 9.10638 5.7547 10.9654C4.98469 12.8244 4.78322 14.87 5.17578 16.8435C5.56834 18.817 6.5373 20.6298 7.96012 22.0526C9.38294 23.4754 11.1957 24.4443 13.1692 24.8369C15.1427 25.2294 17.1883 25.028 19.0473 24.2579C20.9063 23.4879 22.4952 22.1839 23.6131 20.5109C24.731 18.8378 25.3277 16.8708 25.3277 14.8586C25.3246 12.1613 24.2518 9.57539 22.3445 7.66812C20.4372 5.76084 17.8512 4.68799 15.1539 4.68494ZM15.1539 23.6759C13.4101 23.6759 11.7053 23.1587 10.2554 22.1899C8.80539 21.221 7.67527 19.844 7.00792 18.2328C6.34058 16.6217 6.16597 14.8488 6.50619 13.1385C6.84641 11.4281 7.68617 9.85703 8.91928 8.62392C10.1524 7.39081 11.7235 6.55106 13.4338 6.21085C15.1442 5.87064 16.9171 6.04525 18.5282 6.71261C20.1393 7.37996 21.5164 8.51009 22.4852 9.96007C23.4541 11.4101 23.9712 13.1148 23.9712 14.8586C23.9686 17.1963 23.0388 19.4375 21.3858 21.0905C19.7328 22.7435 17.4916 23.6733 15.1539 23.6759Z" fill="#026C7C"/>
<path id="Vector_3" d="M21.9366 14.5195C21.7567 14.5195 21.5842 14.591 21.457 14.7182C21.3298 14.8454 21.2584 15.0179 21.2584 15.1978C21.2584 16.4051 20.9004 17.5853 20.2296 18.5891C19.5589 19.593 18.6055 20.3754 17.4901 20.8374C16.3747 21.2994 15.1474 21.4203 13.9632 21.1848C12.7791 20.9493 11.6915 20.3679 10.8378 19.5142C9.98405 18.6605 9.40267 17.5728 9.16713 16.3887C8.93159 15.2046 9.05248 13.9772 9.51449 12.8618C9.97651 11.7464 10.7589 10.7931 11.7628 10.1223C12.7666 9.45157 13.9468 9.09356 15.1541 9.09356C15.334 9.09356 15.5065 9.0221 15.6337 8.8949C15.7609 8.76771 15.8324 8.59519 15.8324 8.41531C15.8324 8.23543 15.7609 8.06291 15.6337 7.93571C15.5065 7.80852 15.334 7.73706 15.1541 7.73706C13.6785 7.73707 12.2361 8.17464 11.0092 8.99444C9.78226 9.81424 8.826 10.9794 8.26133 12.3427C7.69665 13.706 7.54891 15.2061 7.83678 16.6533C8.12466 18.1006 8.83523 19.4299 9.87863 20.4733C10.922 21.5167 12.2514 22.2273 13.6986 22.5152C15.1459 22.803 16.646 22.6553 18.0093 22.0906C19.3725 21.5259 20.5377 20.5696 21.3575 19.3427C22.1773 18.1158 22.6149 16.6734 22.6149 15.1978C22.6149 15.0179 22.5434 14.8454 22.4162 14.7182C22.289 14.591 22.1165 14.5195 21.9366 14.5195Z" fill="#026C7C"/>
<path id="Vector_4" d="M10.4063 15.1978C10.4063 16.1368 10.6848 17.0548 11.2064 17.8355C11.7281 18.6163 12.4696 19.2248 13.3372 19.5842C14.2047 19.9435 15.1593 20.0376 16.0803 19.8544C17.0013 19.6712 17.8472 19.219 18.5112 18.555C19.1752 17.891 19.6274 17.0451 19.8106 16.1241C19.9938 15.2031 19.8998 14.2485 19.5404 13.381C19.1811 12.5134 18.5726 11.7719 17.7918 11.2502C17.011 10.7285 16.0931 10.4501 15.1541 10.4501C13.8953 10.4515 12.6885 10.9521 11.7985 11.8422C10.9084 12.7323 10.4077 13.9391 10.4063 15.1978ZM18.5453 15.1978C18.5453 15.8685 18.3465 16.5242 17.9738 17.0819C17.6012 17.6396 17.0715 18.0743 16.4519 18.3309C15.8322 18.5876 15.1503 18.6548 14.4925 18.5239C13.8347 18.3931 13.2304 18.0701 12.7561 17.5958C12.2818 17.1215 11.9588 16.5173 11.828 15.8594C11.6971 15.2016 11.7643 14.5197 12.021 13.9001C12.2776 13.2804 12.7123 12.7507 13.27 12.3781C13.8277 12.0055 14.4834 11.8066 15.1541 11.8066C16.0532 11.8076 16.9152 12.1652 17.5509 12.801C18.1867 13.4367 18.5443 14.2987 18.5453 15.1978Z" fill="#026C7C"/>
<path id="Vector_5" d="M13.1193 15.1978C13.1193 15.3777 13.1908 15.5502 13.318 15.6774C13.4452 15.8046 13.6177 15.876 13.7976 15.876C13.9775 15.876 14.15 15.8046 14.2772 15.6774C14.4044 15.5502 14.4758 15.3777 14.4758 15.1978C14.4758 15.0636 14.5156 14.9325 14.5901 14.821C14.6646 14.7094 14.7706 14.6225 14.8945 14.5712C15.0184 14.5198 15.1548 14.5064 15.2864 14.5326C15.4179 14.5587 15.5388 14.6233 15.6337 14.7182C15.7285 14.813 15.7931 14.9339 15.8193 15.0654C15.8455 15.197 15.832 15.3334 15.7807 15.4573C15.7294 15.5812 15.6424 15.6872 15.5309 15.7617C15.4194 15.8362 15.2882 15.876 15.1541 15.876C14.9742 15.876 14.8017 15.9475 14.6745 16.0747C14.5473 16.2019 14.4758 16.3744 14.4758 16.5543C14.4758 16.7341 14.5473 16.9067 14.6745 17.0339C14.8017 17.1611 14.9742 17.2325 15.1541 17.2325C15.5565 17.2325 15.9499 17.1132 16.2845 16.8896C16.6191 16.666 16.8799 16.3482 17.0339 15.9764C17.1879 15.6046 17.2282 15.1955 17.1497 14.8008C17.0712 14.4061 16.8774 14.0435 16.5928 13.759C16.3083 13.4744 15.9457 13.2806 15.551 13.2021C15.1563 13.1236 14.7472 13.1639 14.3754 13.3179C14.0036 13.4719 13.6858 13.7327 13.4622 14.0673C13.2387 14.4019 13.1193 14.7953 13.1193 15.1978Z" fill="#026C7C"/>
</g>
<defs>
<clipPath id="clip0_13_6517">
<rect width="43.4078" height="43.4078" fill="white" transform="translate(0.571655 0.615479)"/>
</clipPath>
</defs>
</svg>
