<svg width="31" height="30" viewBox="0 0 31 30" fill="none" xmlns="http://www.w3.org/2000/svg">
<g id="vuesax/twotone/notification-bing">
<g id="notification-bing">
<path id="Vector" opacity="0.4" d="M15.7031 8.05176V12.2088" stroke="#BAC1CC" stroke-width="2" stroke-linecap="round"/>
<path id="Vector_2" d="M15.7281 2.49708C14.6352 2.49589 13.5528 2.71006 12.5427 3.12735C11.5326 3.54464 10.6146 4.15687 9.84125 4.92906C9.06786 5.70124 8.45419 6.61825 8.03533 7.62768C7.61646 8.63711 7.4006 9.71919 7.40007 10.8121V13.4341C7.36032 14.4311 7.09063 15.4055 6.61207 16.2811L5.02407 18.9271C4.78699 19.2773 4.63679 19.679 4.58595 20.0989C4.53511 20.5187 4.58507 20.9447 4.73171 21.3414C4.87834 21.7381 5.11743 22.0941 5.42913 22.38C5.74084 22.6658 6.11619 22.8733 6.52407 22.9851C12.5036 24.9701 18.9645 24.9701 24.9441 22.9851C25.3384 22.8542 25.6982 22.6362 25.9968 22.3474C26.2955 22.0586 26.5253 21.7063 26.6694 21.3166C26.8134 20.9269 26.868 20.5098 26.829 20.0962C26.79 19.6825 26.6584 19.283 26.4441 18.9271L24.8571 16.2801C24.3801 15.4038 24.1105 14.4299 24.0691 13.4331V10.8121C24.0546 8.60677 23.1703 6.49629 21.6085 4.93931C20.0466 3.38233 17.9334 2.50467 15.7281 2.49708V2.49708Z" stroke="#BAC1CC" stroke-width="2" stroke-linecap="round"/>
<path id="Vector_3" opacity="0.4" d="M19.8611 23.5332C19.8572 24.6347 19.4178 25.6899 18.6389 26.4686C17.8599 27.2474 16.8046 27.6865 15.7031 27.6902C14.6023 27.6862 13.5478 27.2465 12.7701 26.4672C11.9903 25.6895 11.5502 24.6346 11.5461 23.5332" stroke="#BAC1CC" stroke-width="2"/>
</g>
</g>
</svg>
