<svg width="30" height="30" viewBox="0 0 30 30" fill="none" xmlns="http://www.w3.org/2000/svg">
<g id="icon" clip-path="url(#clip0_511_7532)">
<path id="Vector" d="M23.75 28.75H6.25C3.5 28.75 1.25 26.5 1.25 23.75V10C1.25 7.25 3.5 5 6.25 5H23.75C26.5 5 28.75 7.25 28.75 10V23.75C28.75 26.5 26.5 28.75 23.75 28.75Z" stroke="#A35EC3" stroke-width="2" stroke-miterlimit="10" stroke-linecap="round" stroke-linejoin="round"/>
<path id="Vector_2" d="M7.5 1.25V8.5" stroke="#A35EC3" stroke-width="2" stroke-miterlimit="10" stroke-linecap="round" stroke-linejoin="round"/>
<path id="Vector_3" d="M22.5 1.25V8.5" stroke="#A35EC3" stroke-width="2" stroke-miterlimit="10" stroke-linecap="round" stroke-linejoin="round"/>
<path id="Vector_4" d="M10 18.75H7.5C6.75 18.75 6.25 19.25 6.25 20V22.5C6.25 23.25 6.75 23.75 7.5 23.75H10C10.75 23.75 11.25 23.25 11.25 22.5V20C11.25 19.25 10.75 18.75 10 18.75Z" stroke="#A35EC3" stroke-width="2" stroke-miterlimit="10" stroke-linecap="round" stroke-linejoin="round"/>
</g>
<defs>
<clipPath id="clip0_511_7532">
<rect width="30" height="30" fill="white"/>
</clipPath>
</defs>
</svg>
