<svg width="42" height="42" viewBox="0 0 42 42" fill="none" xmlns="http://www.w3.org/2000/svg">
<path id="Vector 189" d="M1.90098 9.87995L10.401 1.37996C10.6172 1.16371 10.9678 1.16371 11.1841 1.37996L19.1442 9.34013C19.3605 9.55638 19.3605 9.90699 19.1442 10.1232L13.5428 15.7247C13.2057 16.0618 13.1221 16.5767 13.3353 17.0031L15.4514 21.2353C16.6838 23.7 18.6824 25.6986 21.1471 26.931L25.3793 29.0471C25.8057 29.2603 26.3206 29.1767 26.6577 28.8396L32.2592 23.2382C32.4754 23.0219 32.826 23.0219 33.0423 23.2382L41.0025 31.1983C41.2187 31.4146 41.2187 31.7652 41.0025 31.9814L32.5025 40.4814C31.3333 41.6506 29.4824 41.7821 28.1597 40.7901L14.4339 30.4957C13.4684 29.7716 12.6108 28.914 11.8867 27.9485L1.59234 14.2227C0.600294 12.9 0.731834 11.0491 1.90098 9.87995Z" fill="#026C7C" fill-opacity="0.19" stroke="#026C7C" stroke-width="0.664489"/>
</svg>
