<svg xmlns="http://www.w3.org/2000/svg" data-name="Layer 1" viewBox="0 0 512 640" x="0px" y="0px"><title>Care</title><path d="M110.968,439.439A6,6,0,0,0,116,442.171l.165,0a6,6,0,0,0,5.039-3.01l21.781-37.937a21.68,21.68,0,0,1,23.686-10.477l91.889,23.086c.129.032.26.06.392.084a97.328,97.328,0,0,0,60.154-8.493,6.011,6.011,0,0,0,.735-.431L449.4,316.037A6,6,0,0,0,451.141,308a35.976,35.976,0,0,0-47.97-13.12l-57.535,30.916A45.958,45.958,0,0,0,304.508,300h-53.52a57.823,57.823,0,0,1-25.088-5.625l-5.519-2.606a94.688,94.688,0,0,0-98.543,9.655c-.131.1-.259.219-.381.328l-59.446,52.93a6.006,6.006,0,0,0-1.043,7.753ZM129.248,310.9a82.724,82.724,0,0,1,85.908-8.262l5.52,2.544A69.9,69.9,0,0,0,250.988,312h53.52a33.963,33.963,0,0,1,32.835,25.918,6.455,6.455,0,0,0,.108,1.745l-38.532-1.712a232,232,0,0,0-42.216,1.965l-1.2.174a6,6,0,0,0,1.646,11.892l1.2-.165a220.3,220.3,0,0,1,40.027-1.848l45.651,2.065a5.937,5.937,0,0,0,4.417-1.656,6,6,0,0,0,1.855-4.337,45.836,45.836,0,0,0-.713-8.075l.137-.62,59.147-31.909a23.992,23.992,0,0,1,28.532,4.279l-124,85.137a85.283,85.283,0,0,1-52.121,7.289L169.8,379.158l-.291-.072a33.741,33.741,0,0,0-36.932,16.161l-16.892,29.422L73.839,360.226Z"/><path d="M298,242.317c.1.041.207.079.311.114a11.743,11.743,0,0,0,8.317,0c.118-.039.235-.083.351-.13,73.193-29.653,97.978-84.015,90.074-124.737,0-.014,0-.028-.008-.043-5.79-28.7-26.613-47.241-53.05-47.241-13.268,0-27.531,4.9-41.474,14.224-14.121-9.741-28.167-14.675-41.8-14.675-26.595,0-47.334,18.747-52.834,47.748C199.99,158.736,224.792,213.269,298,242.317ZM219.675,119.826c4.445-23.438,20.174-38,41.047-38,12.132,0,24.971,4.99,38.164,14.832a6,6,0,0,0,7.112.047c13-9.439,26.146-14.428,38-14.428,20.778,0,36.595,14.4,41.281,37.591,9.642,49.735-34.5,91.671-82.6,111.225-.078.023-.148.042-.21.058-.067-.017-.144-.038-.228-.064C235.553,204.556,212.713,156.11,219.675,119.826Z"/><text x="0" y="527" fill="#000000" font-size="5px" font-weight="bold" font-family="'Helvetica Neue', Helvetica, Arial-Unicode, Arial, Sans-serif">Created by Kiran Shastry</text><text x="0" y="532" fill="#000000" font-size="5px" font-weight="bold" font-family="'Helvetica Neue', Helvetica, Arial-Unicode, Arial, Sans-serif">from the Noun Project</text></svg>