<svg width="32" height="32" viewBox="0 0 32 32" fill="none" xmlns="http://www.w3.org/2000/svg">
<g id="care2 1" clip-path="url(#clip0_497_686)">
<path id="care_1_" d="M13.5 4.00001C13.5 4.27601 13.276 4.50001 13 4.50001C12.724 4.50001 12.5 4.27601 12.5 4.00001C12.5 3.72401 12.724 3.50001 13 3.50001C13.276 3.50001 13.5 3.72401 13.5 4.00001ZM16 3.50001C15.724 3.50001 15.5 3.72401 15.5 4.00001C15.5 4.27601 15.724 4.50001 16 4.50001C16.276 4.50001 16.5 4.27601 16.5 4.00001C16.5 3.72401 16.276 3.50001 16 3.50001ZM19 3.50001C18.724 3.50001 18.5 3.72401 18.5 4.00001C18.5 4.27601 18.724 4.50001 19 4.50001C19.276 4.50001 19.5 4.27601 19.5 4.00001C19.5 3.72401 19.276 3.50001 19 3.50001ZM13 6.50001C12.724 6.50001 12.5 6.72401 12.5 7.00001C12.5 7.27601 12.724 7.50001 13 7.50001C13.276 7.50001 13.5 7.27601 13.5 7.00001C13.5 6.72401 13.276 6.50001 13 6.50001ZM16 6.50001C15.724 6.50001 15.5 6.72401 15.5 7.00001C15.5 7.27601 15.724 7.50001 16 7.50001C16.276 7.50001 16.5 7.27601 16.5 7.00001C16.5 6.72401 16.276 6.50001 16 6.50001ZM19 6.50001C18.724 6.50001 18.5 6.72401 18.5 7.00001C18.5 7.27601 18.724 7.50001 19 7.50001C19.276 7.50001 19.5 7.27601 19.5 7.00001C19.5 6.72401 19.276 6.50001 19 6.50001ZM13 9.50001C12.724 9.50001 12.5 9.72401 12.5 10C12.5 10.276 12.724 10.5 13 10.5C13.276 10.5 13.5 10.276 13.5 10C13.5 9.72401 13.276 9.50001 13 9.50001ZM16 9.50001C15.724 9.50001 15.5 9.72401 15.5 10C15.5 10.276 15.724 10.5 16 10.5C16.276 10.5 16.5 10.276 16.5 10C16.5 9.72401 16.276 9.50001 16 9.50001ZM19 9.50001C18.724 9.50001 18.5 9.72401 18.5 10C18.5 10.276 18.724 10.5 19 10.5C19.276 10.5 19.5 10.276 19.5 10C19.5 9.72401 19.276 9.50001 19 9.50001ZM3.5 13C3.5 13.276 3.724 13.5 4 13.5C4.276 13.5 4.5 13.276 4.5 13C4.5 12.724 4.276 12.5 4 12.5C3.724 12.5 3.5 12.724 3.5 13ZM6.5 13C6.5 13.276 6.724 13.5 7 13.5C7.276 13.5 7.5 13.276 7.5 13C7.5 12.724 7.276 12.5 7 12.5C6.724 12.5 6.5 12.724 6.5 13ZM6.5 16C6.5 16.276 6.724 16.5 7 16.5C7.276 16.5 7.5 16.276 7.5 16C7.5 15.724 7.276 15.5 7 15.5C6.724 15.5 6.5 15.724 6.5 16ZM3.5 16C3.5 16.276 3.724 16.5 4 16.5C4.276 16.5 4.5 16.276 4.5 16C4.5 15.724 4.276 15.5 4 15.5C3.724 15.5 3.5 15.724 3.5 16ZM3.5 19C3.5 19.276 3.724 19.5 4 19.5C4.276 19.5 4.5 19.276 4.5 19C4.5 18.724 4.276 18.5 4 18.5C3.724 18.5 3.5 18.724 3.5 19ZM6.5 19C6.5 19.276 6.724 19.5 7 19.5C7.276 19.5 7.5 19.276 7.5 19C7.5 18.724 7.276 18.5 7 18.5C6.724 18.5 6.5 18.724 6.5 19ZM24.5 13C24.5 13.276 24.724 13.5 25 13.5C25.276 13.5 25.5 13.276 25.5 13C25.5 12.724 25.276 12.5 25 12.5C24.724 12.5 24.5 12.724 24.5 13ZM27.5 13C27.5 13.276 27.724 13.5 28 13.5C28.276 13.5 28.5 13.276 28.5 13C28.5 12.724 28.276 12.5 28 12.5C27.724 12.5 27.5 12.724 27.5 13ZM27.5 16C27.5 16.276 27.724 16.5 28 16.5C28.276 16.5 28.5 16.276 28.5 16C28.5 15.724 28.276 15.5 28 15.5C27.724 15.5 27.5 15.724 27.5 16ZM24.5 16C24.5 16.276 24.724 16.5 25 16.5C25.276 16.5 25.5 16.276 25.5 16C25.5 15.724 25.276 15.5 25 15.5C24.724 15.5 24.5 15.724 24.5 16ZM24.5 19C24.5 19.276 24.724 19.5 25 19.5C25.276 19.5 25.5 19.276 25.5 19C25.5 18.724 25.276 18.5 25 18.5C24.724 18.5 24.5 18.724 24.5 19ZM27.5 19C27.5 19.276 27.724 19.5 28 19.5C28.276 19.5 28.5 19.276 28.5 19C28.5 18.724 28.276 18.5 28 18.5C27.724 18.5 27.5 18.724 27.5 19ZM13 21.5C12.724 21.5 12.5 21.724 12.5 22C12.5 22.276 12.724 22.5 13 22.5C13.276 22.5 13.5 22.276 13.5 22C13.5 21.724 13.276 21.5 13 21.5ZM16 21.5C15.724 21.5 15.5 21.724 15.5 22C15.5 22.276 15.724 22.5 16 22.5C16.276 22.5 16.5 22.276 16.5 22C16.5 21.724 16.276 21.5 16 21.5ZM19 21.5C18.724 21.5 18.5 21.724 18.5 22C18.5 22.276 18.724 22.5 19 22.5C19.276 22.5 19.5 22.276 19.5 22C19.5 21.724 19.276 21.5 19 21.5ZM19 24.5C18.724 24.5 18.5 24.724 18.5 25C18.5 25.276 18.724 25.5 19 25.5C19.276 25.5 19.5 25.276 19.5 25C19.5 24.724 19.276 24.5 19 24.5ZM16 24.5C15.724 24.5 15.5 24.724 15.5 25C15.5 25.276 15.724 25.5 16 25.5C16.276 25.5 16.5 25.276 16.5 25C16.5 24.724 16.276 24.5 16 24.5ZM13 24.5C12.724 24.5 12.5 24.724 12.5 25C12.5 25.276 12.724 25.5 13 25.5C13.276 25.5 13.5 25.276 13.5 25C13.5 24.724 13.276 24.5 13 24.5ZM13 27.5C12.724 27.5 12.5 27.724 12.5 28C12.5 28.276 12.724 28.5 13 28.5C13.276 28.5 13.5 28.276 13.5 28C13.5 27.724 13.276 27.5 13 27.5ZM16 27.5C15.724 27.5 15.5 27.724 15.5 28C15.5 28.276 15.724 28.5 16 28.5C16.276 28.5 16.5 28.276 16.5 28C16.5 27.724 16.276 27.5 16 27.5ZM19 27.5C18.724 27.5 18.5 27.724 18.5 28C18.5 28.276 18.724 28.5 19 28.5C19.276 28.5 19.5 28.276 19.5 28C19.5 27.724 19.276 27.5 19 27.5ZM20 31.36H12C10.699 31.36 9.64 30.301 9.64 29V22.36H3C1.699 22.36 0.639999 21.301 0.639999 20V12C0.639999 10.699 1.699 9.64001 3 9.64001H9.64V3.00001C9.64 1.69901 10.699 0.640015 12 0.640015H20C21.302 0.640015 22.36 1.69901 22.36 3.00001V9.64001H29C30.302 9.64001 31.36 10.699 31.36 12V20C31.36 21.302 30.301 22.36 29 22.36H22.36V29C22.36 30.302 21.302 31.36 20 31.36ZM12 1.36001C11.096 1.36001 10.36 2.09601 10.36 3.00001V29C10.36 29.904 11.096 30.64 12 30.64H20C20.904 30.64 21.64 29.905 21.64 29V3.00001C21.64 2.09601 20.905 1.36001 20 1.36001H12ZM22.36 21.64H29C29.904 21.64 30.64 20.905 30.64 20V12C30.64 11.096 29.905 10.36 29 10.36H22.36V21.64ZM3 10.359C2.096 10.359 1.36 11.095 1.36 11.999V19.999C1.36 20.903 2.096 21.639 3 21.639H9.64V10.359H3ZM19 19.36H13C12.801 19.36 12.64 19.199 12.64 19C12.64 18.801 12.801 18.64 13 18.64H19C19.199 18.64 19.36 18.801 19.36 19C19.36 19.199 19.199 19.36 19 19.36ZM19 16.36H13C12.801 16.36 12.64 16.199 12.64 16C12.64 15.801 12.801 15.64 13 15.64H19C19.199 15.64 19.36 15.801 19.36 16C19.36 16.199 19.199 16.36 19 16.36ZM19 13.36H13C12.801 13.36 12.64 13.199 12.64 13C12.64 12.801 12.801 12.64 13 12.64H19C19.199 12.64 19.36 12.801 19.36 13C19.36 13.199 19.199 13.36 19 13.36Z" fill="#026C7C"/>
</g>
<defs>
<clipPath id="clip0_497_686">
<rect width="32" height="32" fill="white"/>
</clipPath>
</defs>
</svg>
