<svg width="29" height="30" viewBox="0 0 29 30" fill="none" xmlns="http://www.w3.org/2000/svg">
<g id="vuesax/linear/bookmark">
<g id="bookmark">
<path id="Vector" d="M10.8751 27.501H18.1251C24.1667 27.501 26.5834 25.001 26.5834 18.751V11.251C26.5834 5.00098 24.1667 2.50098 18.1251 2.50098H10.8751C4.83341 2.50098 2.41675 5.00098 2.41675 11.251V18.751C2.41675 25.001 4.83341 27.501 10.8751 27.501Z" stroke="#A35EC3" stroke-width="1.5" stroke-linecap="round" stroke-linejoin="round"/>
<path id="Vector_2" d="M20.5416 3.04883V15.5238C20.5416 17.9863 18.8378 18.9488 16.7474 17.6488L15.1524 16.6613C14.7899 16.4363 14.2099 16.4363 13.8474 16.6613L12.2524 17.6488C10.162 18.9363 8.45825 17.9863 8.45825 15.5238V3.04883" stroke="#A35EC3" stroke-width="1.5" stroke-linecap="round" stroke-linejoin="round"/>
<path id="Vector_3" d="M10.8751 27.501H18.1251C24.1667 27.501 26.5834 25.001 26.5834 18.751V11.251C26.5834 5.00098 24.1667 2.50098 18.1251 2.50098H10.8751C4.83341 2.50098 2.41675 5.00098 2.41675 11.251V18.751C2.41675 25.001 4.83341 27.501 10.8751 27.501Z" stroke="#A35EC3" stroke-width="1.5" stroke-linecap="round" stroke-linejoin="round"/>
<path id="Vector_4" d="M20.5416 3.04883V15.5238C20.5416 17.9863 18.8378 18.9488 16.7474 17.6488L15.1524 16.6613C14.7899 16.4363 14.2099 16.4363 13.8474 16.6613L12.2524 17.6488C10.162 18.9363 8.45825 17.9863 8.45825 15.5238V3.04883" stroke="#A35EC3" stroke-width="1.5" stroke-linecap="round" stroke-linejoin="round"/>
</g>
</g>
</svg>
