<svg width="17" height="17" viewBox="0 0 17 17" fill="none" xmlns="http://www.w3.org/2000/svg">
<g id="Layer 2">
<g id="link-2">
<path id="Vector" d="M9.35996 6.78688L6.69329 9.45355C6.63081 9.51552 6.58121 9.58926 6.54737 9.6705C6.51352 9.75174 6.49609 9.83887 6.49609 9.92688C6.49609 10.0149 6.51352 10.102 6.54737 10.1833C6.58121 10.2645 6.63081 10.3382 6.69329 10.4002C6.75527 10.4627 6.829 10.5123 6.91024 10.5461C6.99148 10.58 7.07862 10.5974 7.16663 10.5974C7.25463 10.5974 7.34177 10.58 7.42301 10.5461C7.50425 10.5123 7.57798 10.4627 7.63996 10.4002L10.3066 7.73355C10.4322 7.60801 10.5027 7.43775 10.5027 7.26021C10.5027 7.08268 10.4322 6.91242 10.3066 6.78688C10.1811 6.66135 10.0108 6.59082 9.83329 6.59082C9.65576 6.59082 9.4855 6.66135 9.35996 6.78688V6.78688Z" fill="#A35EC3"/>
<path id="Vector_2" d="M8.68669 12.1935L7.83335 13.0402C7.3543 13.5338 6.71031 13.8339 6.02421 13.883C5.33811 13.9322 4.65791 13.7271 4.11335 13.3069C3.82553 13.0697 3.59066 12.7748 3.42391 12.4412C3.25716 12.1076 3.16224 11.7428 3.14528 11.3702C3.12831 10.9976 3.18969 10.6257 3.32543 10.2783C3.46118 9.93092 3.66828 9.61589 3.93335 9.35355L4.88002 8.40021C4.94251 8.33824 4.9921 8.2645 5.02595 8.18326C5.05979 8.10203 5.07722 8.01489 5.07722 7.92688C5.07722 7.83887 5.05979 7.75173 5.02595 7.6705C4.9921 7.58926 4.94251 7.51552 4.88002 7.45355C4.81805 7.39106 4.74431 7.34146 4.66307 7.30762C4.58183 7.27377 4.4947 7.25635 4.40669 7.25635C4.31868 7.25635 4.23154 7.27377 4.1503 7.30762C4.06906 7.34146 3.99533 7.39106 3.93335 7.45355L3.08669 8.30688C2.37346 8.99755 1.93508 9.92356 1.85293 10.913C1.77079 11.9024 2.05046 12.888 2.64002 13.6869C2.98994 14.1408 3.43245 14.5151 3.93815 14.7849C4.44385 15.0547 5.00116 15.2138 5.57307 15.2516C6.14499 15.2895 6.7184 15.2052 7.25523 15.0043C7.79206 14.8035 8.28002 14.4908 8.68669 14.0869L9.63335 13.1402C9.75889 13.0147 9.82941 12.8444 9.82941 12.6669C9.82941 12.4893 9.75889 12.3191 9.63335 12.1935C9.50782 12.068 9.33755 11.9975 9.16002 11.9975C8.98249 11.9975 8.81222 12.068 8.68669 12.1935V12.1935Z" fill="#A35EC3"/>
<path id="Vector_3" d="M13.6066 2.74028C12.8023 2.14459 11.8086 1.86207 10.8112 1.9455C9.81376 2.02892 8.88082 2.47258 8.18662 3.19361L7.46662 3.92695C7.38432 3.98677 7.31551 4.06321 7.26463 4.15132C7.21375 4.23942 7.18194 4.33723 7.17125 4.43841C7.16057 4.53959 7.17125 4.64188 7.20261 4.73867C7.23397 4.83546 7.2853 4.92459 7.35328 5.00028C7.41526 5.06276 7.48899 5.11236 7.57023 5.14621C7.65147 5.18005 7.73861 5.19748 7.82662 5.19748C7.91462 5.19748 8.00176 5.18005 8.083 5.14621C8.16424 5.11236 8.23797 5.06276 8.29995 5.00028L9.16662 4.12695C9.64302 3.63116 10.2862 3.3295 10.9721 3.28025C11.6579 3.231 12.3376 3.43765 12.88 3.86028C13.1699 4.09748 13.4066 4.39312 13.5747 4.72792C13.7428 5.06273 13.8384 5.42919 13.8554 5.80343C13.8724 6.17767 13.8103 6.55129 13.6733 6.89994C13.5362 7.2486 13.3272 7.56446 13.06 7.82695L12.1133 8.78028C12.0508 8.84225 12.0012 8.91599 11.9674 8.99723C11.9335 9.07847 11.9161 9.1656 11.9161 9.25361C11.9161 9.34162 11.9335 9.42876 11.9674 9.51C12.0012 9.59124 12.0508 9.66497 12.1133 9.72695C12.1753 9.78943 12.249 9.83903 12.3302 9.87287C12.4115 9.90672 12.4986 9.92414 12.5866 9.92414C12.6746 9.92414 12.7618 9.90672 12.843 9.87287C12.9242 9.83903 12.998 9.78943 13.06 9.72695L14.0066 8.78028C14.4094 8.37368 14.7212 7.88615 14.9213 7.34997C15.1215 6.8138 15.2054 6.24121 15.1676 5.67015C15.1298 5.09908 14.9711 4.54257 14.7019 4.03747C14.4328 3.53237 14.0595 3.09021 13.6066 2.74028V2.74028Z" fill="#A35EC3"/>
</g>
</g>
</svg>
