<svg width="30" height="30" viewBox="0 0 30 30" fill="none" xmlns="http://www.w3.org/2000/svg">
<g id="Icon / Projects" opacity="0.4">
<g id="Group 50">
<path id="Rectangle 25 (Stroke)" fill-rule="evenodd" clip-rule="evenodd" d="M3.75 6.875C3.75 4.45875 5.70875 2.5 8.125 2.5H11.875C14.2912 2.5 16.25 4.45875 16.25 6.875V10.625C16.25 13.0412 14.2912 15 11.875 15H8.125C5.70875 15 3.75 13.0412 3.75 10.625V6.875ZM8.125 3.75C6.39911 3.75 5 5.14911 5 6.875V10.625C5 12.3509 6.39911 13.75 8.125 13.75H11.875C13.6009 13.75 15 12.3509 15 10.625V6.875C15 5.14911 13.6009 3.75 11.875 3.75H8.125Z" fill="black"/>
<path id="Rectangle 27 (Stroke)" fill-rule="evenodd" clip-rule="evenodd" d="M3.75 19.375C3.75 17.6491 5.14911 16.25 6.875 16.25H10.625C12.3509 16.25 13.75 17.6491 13.75 19.375V23.125C13.75 24.8509 12.3509 26.25 10.625 26.25H6.875C5.14911 26.25 3.75 24.8509 3.75 23.125V19.375ZM6.875 17.5C5.83947 17.5 5 18.3395 5 19.375V23.125C5 24.1605 5.83947 25 6.875 25H10.625C11.6605 25 12.5 24.1605 12.5 23.125V19.375C12.5 18.3395 11.6605 17.5 10.625 17.5H6.875Z" fill="black"/>
<path id="Rectangle 28 (Stroke)" fill-rule="evenodd" clip-rule="evenodd" d="M17.5 5.625C17.5 3.89911 18.8991 2.5 20.625 2.5H24.375C26.1009 2.5 27.5 3.89911 27.5 5.625V9.375C27.5 11.1009 26.1009 12.5 24.375 12.5H20.625C18.8991 12.5 17.5 11.1009 17.5 9.375V5.625ZM20.625 3.75C19.5895 3.75 18.75 4.58947 18.75 5.625V9.375C18.75 10.4105 19.5895 11.25 20.625 11.25H24.375C25.4105 11.25 26.25 10.4105 26.25 9.375V5.625C26.25 4.58947 25.4105 3.75 24.375 3.75H20.625Z" fill="black"/>
<path id="Rectangle 26 (Stroke)" fill-rule="evenodd" clip-rule="evenodd" d="M15 18.125C15 15.7088 16.9588 13.75 19.375 13.75H23.125C25.5412 13.75 27.5 15.7088 27.5 18.125V21.875C27.5 24.2912 25.5412 26.25 23.125 26.25H19.375C16.9588 26.25 15 24.2912 15 21.875V18.125ZM19.375 15C17.6491 15 16.25 16.3991 16.25 18.125V21.875C16.25 23.6009 17.6491 25 19.375 25H23.125C24.8509 25 26.25 23.6009 26.25 21.875V18.125C26.25 16.3991 24.8509 15 23.125 15H19.375Z" fill="black"/>
</g>
</g>
</svg>
