<svg width="43" height="43" viewBox="0 0 43 43" fill="none" xmlns="http://www.w3.org/2000/svg">
<g id="icon">
<path id="Vector" d="M21.4471 41.1069H33.9579C37.8899 41.1069 41.107 37.8899 41.107 33.9579V16.0853C41.107 12.1533 37.8899 8.93628 33.9579 8.93628H8.93632C5.00436 8.93628 1.78729 12.1533 1.78729 16.0853V21.4471" stroke="#026C7C" stroke-width="1.71577" stroke-miterlimit="10" stroke-linecap="round" stroke-linejoin="round"/>
<path id="Vector_2" d="M33.9579 28.5961H41.1069V21.447H33.9579C31.9919 21.447 30.3834 23.0556 30.3834 25.0215C30.3834 26.9875 31.9919 28.5961 33.9579 28.5961Z" stroke="#026C7C" stroke-width="1.71577" stroke-miterlimit="10" stroke-linecap="round" stroke-linejoin="round"/>
<path id="Vector_3" d="M10.7236 8.93626L29.8472 1.96596C30.2047 1.78723 30.5621 1.78723 30.9196 1.78723C32.5281 1.78723 33.9579 3.21704 33.9579 4.82557V8.93626" stroke="#026C7C" stroke-width="1.71577" stroke-miterlimit="10" stroke-linecap="round" stroke-linejoin="round"/>
<path id="Vector_4" d="M8.93628 41.1069V26.8088" stroke="#026C7C" stroke-width="1.71577" stroke-miterlimit="10" stroke-linecap="round" stroke-linejoin="round"/>
<path id="Vector_5" d="M1.78729 33.9579H16.0854" stroke="#026C7C" stroke-width="1.71577" stroke-miterlimit="10" stroke-linecap="round" stroke-linejoin="round"/>
</g>
</svg>
