<svg xmlns="http://www.w3.org/2000/svg" xmlns:xlink="http://www.w3.org/1999/xlink" version="1.1" x="0px" y="0px" viewBox="0 0 66 82.5" enable-background="new 0 0 66 66" xml:space="preserve"><g><path d="M3.972,28.181c0.398,0.075,0.798-0.186,0.875-0.6C6.966,16.249,15.899,7.19,27.158,4.852l-1.421,2.251   c-0.221,0.35-0.116,0.813,0.234,1.035c0.35,0.221,0.813,0.117,1.035-0.234l2.236-3.542c0.106-0.168,0.141-0.372,0.097-0.566   c-0.044-0.194-0.163-0.362-0.331-0.469L25.543,1.14c-0.35-0.221-0.813-0.117-1.035,0.234c-0.221,0.35-0.116,0.813,0.234,1.035   l1.695,1.07C14.786,6.075,5.576,15.519,3.373,27.306C3.296,27.713,3.565,28.105,3.972,28.181z"/><path d="M27.7,61.057C16.641,58.989,7.751,50.429,5.154,39.552l1.924,1.215c0.349,0.219,0.814,0.117,1.035-0.234   c0.221-0.35,0.116-0.813-0.234-1.035l-3.541-2.236c-0.168-0.106-0.372-0.142-0.566-0.097c-0.194,0.044-0.362,0.163-0.469,0.331   l-2.188,3.465C0.895,41.311,1,41.775,1.35,41.996c0.35,0.221,0.813,0.117,1.035-0.234l1.276-2.02   c2.684,11.521,12.072,20.604,23.765,22.79c0.398,0.075,0.798-0.186,0.875-0.6C28.376,61.526,28.107,61.133,27.7,61.057z"/><path d="M41.822,64.589c0.2-0.363,0.068-0.819-0.294-1.019l-2.187-1.206c11.766-2.517,21.089-12.014,23.311-23.883   c0.076-0.407-0.192-0.799-0.599-0.875c-0.409-0.077-0.799,0.192-0.875,0.599c-2.107,11.26-10.941,20.272-22.095,22.681l1.052-1.907   c0.2-0.363,0.068-0.819-0.294-1.019c-0.36-0.2-0.818-0.067-1.019,0.294l-1.979,3.588c-0.096,0.174-0.119,0.379-0.064,0.57   c0.055,0.191,0.184,0.352,0.358,0.449l3.668,2.023C41.161,65.081,41.62,64.953,41.822,64.589z"/><path d="M64.65,24.134c-0.35-0.221-0.814-0.117-1.035,0.234l-1.201,1.902C59.803,14.641,50.368,5.454,38.599,3.254   c-0.405-0.074-0.798,0.192-0.875,0.6c-0.076,0.407,0.192,0.799,0.6,0.875c11.201,2.094,20.177,10.849,22.642,21.925l-2.043-1.29   c-0.35-0.221-0.813-0.117-1.035,0.234c-0.221,0.35-0.116,0.813,0.234,1.035l3.542,2.236c0.173,0.109,0.38,0.14,0.566,0.097   c0.194-0.044,0.362-0.163,0.469-0.331l2.187-3.464C65.105,24.819,65.001,24.356,64.65,24.134z"/><path d="M10.406,33c0,12.458,10.136,22.594,22.594,22.594S55.594,45.458,55.594,33S45.458,10.406,33,10.406   S10.406,20.542,10.406,33z M18.349,48.143h29.302c-3.798,3.676-8.96,5.951-14.651,5.951C27.309,54.094,22.147,51.819,18.349,48.143   z M26.886,25.471c0-3.371,2.743-6.114,6.114-6.114c3.371,0,6.114,2.743,6.114,6.114c0,3.372-2.743,6.114-6.114,6.114   C29.629,31.586,26.886,28.843,26.886,25.471z M46.925,46.643h-27.85C19.466,39.301,25.563,33.448,33,33.448   C40.438,33.448,46.535,39.301,46.925,46.643z M33,11.906c11.631,0,21.094,9.462,21.094,21.094c0,5.531-2.157,10.556-5.652,14.322   c-0.033-7.346-5.222-13.489-12.126-15.007c2.54-1.235,4.299-3.835,4.299-6.844c0-4.198-3.416-7.614-7.614-7.614   c-4.199,0-7.614,3.416-7.614,7.614c0,3.009,1.759,5.609,4.299,6.844c-6.905,1.518-12.093,7.661-12.126,15.007   c-3.496-3.766-5.653-8.791-5.653-14.323C11.906,21.369,21.369,11.906,33,11.906z"/></g><text x="0" y="81" fill="#000000" font-size="5px" font-weight="bold" font-family="'Helvetica Neue', Helvetica, Arial-Unicode, Arial, Sans-serif">Created by Vectors Market</text><text x="0" y="86" fill="#000000" font-size="5px" font-weight="bold" font-family="'Helvetica Neue', Helvetica, Arial-Unicode, Arial, Sans-serif">from the Noun Project</text></svg>