<svg width="30" height="30" viewBox="0 0 30 30" fill="none" xmlns="http://www.w3.org/2000/svg">
<g id="Icon / Proff Ex" opacity="0.4">
<g id="vuesax/linear/bookmark">
<g id="bookmark">
<path id="Vector" d="M11.8751 27.501H19.1251C25.1667 27.501 27.5834 25.001 27.5834 18.751V11.251C27.5834 5.00098 25.1667 2.50098 19.1251 2.50098H11.8751C5.83341 2.50098 3.41675 5.00098 3.41675 11.251V18.751C3.41675 25.001 5.83341 27.501 11.8751 27.501Z" stroke="#3B3E44" stroke-width="1.5" stroke-linecap="round" stroke-linejoin="round"/>
<path id="Vector_2" d="M21.5416 3.04932V15.5243C21.5416 17.9868 19.8378 18.9493 17.7474 17.6493L16.1524 16.6618C15.7899 16.4368 15.2099 16.4368 14.8474 16.6618L13.2524 17.6493C11.162 18.9368 9.45825 17.9868 9.45825 15.5243V3.04932" stroke="#3B3E44" stroke-width="1.5" stroke-linecap="round" stroke-linejoin="round"/>
<path id="Vector_3" d="M11.8751 27.501H19.1251C25.1667 27.501 27.5834 25.001 27.5834 18.751V11.251C27.5834 5.00098 25.1667 2.50098 19.1251 2.50098H11.8751C5.83341 2.50098 3.41675 5.00098 3.41675 11.251V18.751C3.41675 25.001 5.83341 27.501 11.8751 27.501Z" stroke="#3B3E44" stroke-width="1.5" stroke-linecap="round" stroke-linejoin="round"/>
<path id="Vector_4" d="M21.5416 3.04932V15.5243C21.5416 17.9868 19.8378 18.9493 17.7474 17.6493L16.1524 16.6618C15.7899 16.4368 15.2099 16.4368 14.8474 16.6618L13.2524 17.6493C11.162 18.9368 9.45825 17.9868 9.45825 15.5243V3.04932" stroke="#3B3E44" stroke-width="1.5" stroke-linecap="round" stroke-linejoin="round"/>
</g>
</g>
</g>
</svg>
