<svg width="30" height="30" viewBox="0 0 30 30" fill="none" xmlns="http://www.w3.org/2000/svg">
<g id="Icon / About me">
<g id="Profile">
<path id="Head" fill-rule="evenodd" clip-rule="evenodd" d="M15 4.375C12.5838 4.375 10.625 6.33375 10.625 8.75C10.625 11.1662 12.5838 13.125 15 13.125C17.4162 13.125 19.375 11.1662 19.375 8.75C19.375 6.33375 17.4162 4.375 15 4.375ZM9.375 8.75C9.375 5.6434 11.8934 3.125 15 3.125C18.1066 3.125 20.625 5.6434 20.625 8.75C20.625 11.8566 18.1066 14.375 15 14.375C11.8934 14.375 9.375 11.8566 9.375 8.75Z" fill="#A35EC3"/>
<path id="Body" fill-rule="evenodd" clip-rule="evenodd" d="M11.4123 16.3386C12.5498 15.8675 13.7689 15.625 15 15.625C16.2311 15.625 17.4502 15.8675 18.5877 16.3386C19.7251 16.8098 20.7586 17.5003 21.6291 18.3709C22.4997 19.2414 23.1902 20.2749 23.6614 21.4123C24.1325 22.5498 24.375 23.7689 24.375 25C24.375 25.3452 24.0952 25.625 23.75 25.625C23.4048 25.625 23.125 25.3452 23.125 25C23.125 23.933 22.9148 22.8765 22.5065 21.8907C22.0982 20.9049 21.4997 20.0092 20.7452 19.2548C19.9908 18.5003 19.0951 17.9018 18.1093 17.4935C17.1235 17.0852 16.067 16.875 15 16.875C13.933 16.875 12.8765 17.0852 11.8907 17.4935C10.9049 17.9018 10.0092 18.5003 9.25476 19.2548C8.50028 20.0092 7.9018 20.9049 7.49348 21.8907C7.08516 22.8765 6.875 23.933 6.875 25C6.875 25.3452 6.59518 25.625 6.25 25.625C5.90482 25.625 5.625 25.3452 5.625 25C5.625 23.7689 5.86749 22.5498 6.33863 21.4123C6.80977 20.2749 7.50032 19.2414 8.37087 18.3709C9.24142 17.5003 10.2749 16.8098 11.4123 16.3386Z" fill="#A35EC3"/>
</g>
</g>
</svg>
