<svg width="30" height="30" viewBox="0 0 30 30" fill="none" xmlns="http://www.w3.org/2000/svg">
<g id="Profile" opacity="0.4">
<path id="Head" fill-rule="evenodd" clip-rule="evenodd" d="M10 1.58929C7.58375 1.58929 5.625 3.54805 5.625 5.96429C5.625 8.38054 7.58375 10.3393 10 10.3393C12.4162 10.3393 14.375 8.38054 14.375 5.96429C14.375 3.54805 12.4162 1.58929 10 1.58929ZM4.375 5.96429C4.375 2.85769 6.8934 0.339294 10 0.339294C13.1066 0.339294 15.625 2.85769 15.625 5.96429C15.625 9.0709 13.1066 11.5893 10 11.5893C6.8934 11.5893 4.375 9.0709 4.375 5.96429Z" fill="black"/>
<path id="Body" fill-rule="evenodd" clip-rule="evenodd" d="M6.41234 13.5529C7.54977 13.0818 8.76886 12.8393 10 12.8393C11.2311 12.8393 12.4502 13.0818 13.5877 13.5529C14.7251 14.0241 15.7586 14.7146 16.6291 15.5852C17.4997 16.4557 18.1902 17.4892 18.6614 18.6266C19.1325 19.7641 19.375 20.9832 19.375 22.2143C19.375 22.5595 19.0952 22.8393 18.75 22.8393C18.4048 22.8393 18.125 22.5595 18.125 22.2143C18.125 21.1473 17.9148 20.0908 17.5065 19.105C17.0982 18.1192 16.4997 17.2235 15.7452 16.4691C14.9908 15.7146 14.0951 15.1161 13.1093 14.7078C12.1235 14.2995 11.067 14.0893 10 14.0893C8.93301 14.0893 7.87647 14.2995 6.8907 14.7078C5.90493 15.1161 5.00923 15.7146 4.25476 16.4691C3.50028 17.2235 2.9018 18.1192 2.49348 19.105C2.08516 20.0908 1.875 21.1473 1.875 22.2143C1.875 22.5595 1.59518 22.8393 1.25 22.8393C0.904822 22.8393 0.625 22.5595 0.625 22.2143C0.625 20.9832 0.867491 19.7641 1.33863 18.6266C1.80977 17.4892 2.50032 16.4557 3.37087 15.5852C4.24142 14.7146 5.27492 14.0241 6.41234 13.5529Z" fill="black"/>
</g>
</svg>
