<svg width="33" height="34" viewBox="0 0 33 34" fill="none" xmlns="http://www.w3.org/2000/svg">
<g id="Icon / About me">
<g id="Profile">
<path id="Head" fill-rule="evenodd" clip-rule="evenodd" d="M16.5 5.3125C13.8421 5.3125 11.6875 7.46713 11.6875 10.125C11.6875 12.7829 13.8421 14.9375 16.5 14.9375C19.1579 14.9375 21.3125 12.7829 21.3125 10.125C21.3125 7.46713 19.1579 5.3125 16.5 5.3125ZM10.3125 10.125C10.3125 6.70774 13.0827 3.9375 16.5 3.9375C19.9173 3.9375 22.6875 6.70774 22.6875 10.125C22.6875 13.5423 19.9173 16.3125 16.5 16.3125C13.0827 16.3125 10.3125 13.5423 10.3125 10.125Z" fill="black"/>
<path id="Body" fill-rule="evenodd" clip-rule="evenodd" d="M12.5536 18.4725C13.8047 17.9542 15.1457 17.6875 16.5 17.6875C17.8543 17.6875 19.1953 17.9542 20.4464 18.4725C21.6976 18.9907 22.8344 19.7504 23.792 20.708C24.7496 21.6656 25.5093 22.8024 26.0275 24.0536C26.5458 25.3047 26.8125 26.6457 26.8125 28C26.8125 28.3797 26.5047 28.6875 26.125 28.6875C25.7453 28.6875 25.4375 28.3797 25.4375 28C25.4375 26.8263 25.2063 25.6641 24.7572 24.5798C24.308 23.4954 23.6497 22.5102 22.8198 21.6802C21.9898 20.8503 21.0046 20.192 19.9202 19.7428C18.8359 19.2937 17.6737 19.0625 16.5 19.0625C15.3263 19.0625 14.1641 19.2937 13.0798 19.7428C11.9954 20.192 11.0102 20.8503 10.1802 21.6802C9.35031 22.5102 8.69198 23.4954 8.24283 24.5798C7.79368 25.6641 7.5625 26.8263 7.5625 28C7.5625 28.3797 7.2547 28.6875 6.875 28.6875C6.4953 28.6875 6.1875 28.3797 6.1875 28C6.1875 26.6457 6.45424 25.3047 6.97249 24.0536C7.49074 22.8024 8.25036 21.6656 9.20796 20.708C10.1656 19.7504 11.3024 18.9907 12.5536 18.4725Z" fill="black"/>
</g>
</g>
</svg>
