<svg width="16" height="17" viewBox="0 0 16 17" fill="none" xmlns="http://www.w3.org/2000/svg">
<g id="arrow-ios-forward">
<path id="Vector" d="M6.1847 14.5922C5.9861 14.5926 5.79365 14.523 5.64073 14.3955C5.55466 14.3237 5.48352 14.2355 5.43138 14.136C5.37923 14.0365 5.34711 13.9276 5.33684 13.8156C5.32658 13.7036 5.33838 13.5906 5.37156 13.4832C5.40475 13.3758 5.45867 13.276 5.53024 13.1896L9.33801 8.60548L5.66623 4.01281C5.59563 3.92533 5.5429 3.82467 5.51109 3.71661C5.47927 3.60856 5.46899 3.49525 5.48084 3.38319C5.49269 3.27113 5.52643 3.16253 5.58012 3.06363C5.63382 2.96473 5.70641 2.87749 5.79372 2.80691C5.88166 2.72905 5.98465 2.67032 6.09621 2.63441C6.20778 2.5985 6.32552 2.58618 6.44204 2.59823C6.55856 2.61027 6.67135 2.64643 6.77333 2.70441C6.87531 2.7624 6.96428 2.84097 7.03465 2.9352L11.1399 8.06667C11.2649 8.21971 11.3333 8.41166 11.3333 8.60976C11.3333 8.80785 11.2649 8.99981 11.1399 9.15284L6.89015 14.2843C6.80489 14.3878 6.69658 14.4696 6.57401 14.5231C6.45144 14.5766 6.31806 14.6003 6.1847 14.5922Z" fill="white"/>
</g>
</svg>
