<svg width="50" height="50" viewBox="0 0 50 50" fill="none" xmlns="http://www.w3.org/2000/svg">
<g id="set 1" clip-path="url(#clip0_497_730)">
<g id="Group">
<g id="Group_2">
<path id="Vector" d="M3.08032 25.0013C3.08032 25.5602 3.52745 26.0073 4.08637 26.0073C4.64528 26.0073 5.09242 25.5602 5.09242 25.0013C5.09242 14.138 13.8521 5.27666 24.6748 5.10391L23.3029 6.47579C22.9066 6.87211 22.9066 7.50216 23.3029 7.89848C23.496 8.09156 23.7602 8.19318 24.0142 8.19318C24.2683 8.19318 24.5325 8.09156 24.7256 7.89848L27.8148 4.80921C28.2112 4.41289 28.2112 3.78284 27.8148 3.38652L24.7256 0.297241C24.3292 -0.0990803 23.6992 -0.0990803 23.3029 0.297241C22.9066 0.693562 22.9066 1.32361 23.3029 1.71993L24.6849 3.10198C12.7445 3.25441 3.08032 13.0202 3.08032 25.0013Z" fill="#44A2B0"/>
<path id="Vector_2" d="M45.9136 23.9952C45.3547 23.9952 44.9076 24.4424 44.9076 25.0013C44.9076 35.8646 36.1478 44.7259 25.3252 44.8986L26.6971 43.5268C27.0934 43.1304 27.0934 42.5004 26.6971 42.1041C26.3008 41.7078 25.6707 41.7078 25.2744 42.1041L22.1851 45.1933C21.9921 45.3864 21.8904 45.6405 21.8904 45.9047C21.8904 46.1689 21.9921 46.423 22.1851 46.616L25.2744 49.7053C25.4675 49.8984 25.7317 50 25.9858 50C26.2398 50 26.504 49.8984 26.6971 49.7053C27.0934 49.309 27.0934 48.6789 26.6971 48.2826L25.3151 46.9006C37.2555 46.7481 46.9197 36.9824 46.9197 25.0013C46.9196 24.4424 46.4725 23.9952 45.9136 23.9952Z" fill="#44A2B0"/>
<path id="Vector_3" d="M22.5204 19.0158C20.9249 19.6764 19.675 20.9263 19.0144 22.5217C18.3539 24.1172 18.3539 25.8854 19.0144 27.4808C20.0205 29.9096 22.3679 31.4847 24.9999 31.4847C25.8535 31.4847 26.6868 31.3221 27.4795 30.9868C29.0749 30.3262 30.3248 29.0763 30.9854 27.4808C31.6459 25.8854 31.6459 24.1172 30.9854 22.5217C29.9793 20.093 27.6319 18.5179 24.9999 18.5179C24.1463 18.5179 23.313 18.6906 22.5204 19.0158ZM29.1257 23.2941C29.583 24.4017 29.583 25.611 29.1257 26.7187C28.6684 27.8264 27.8148 28.68 26.7071 29.1373C26.1584 29.3608 25.5893 29.4828 24.9999 29.4828C23.1809 29.4828 21.5651 28.3954 20.8741 26.7187C20.4168 25.611 20.4168 24.4017 20.8741 23.2941C21.3314 22.1864 22.185 21.3328 23.2927 20.8755C23.8414 20.6519 24.4105 20.53 24.9999 20.53C26.8089 20.53 28.4348 21.6173 29.1257 23.2941Z" fill="#026C7C"/>
<path id="Vector_4" d="M27.0323 11.5975L26.6157 12.6035C25.5487 12.4613 24.4613 12.4613 23.3943 12.6035L22.9777 11.5975C22.6322 10.7642 21.8192 10.2256 20.9148 10.2256C20.6201 10.2256 20.3355 10.2866 20.0612 10.3984L18.1608 11.1809C17.6121 11.4044 17.1853 11.8414 16.9516 12.3901C16.728 12.9389 16.728 13.5486 16.9516 14.0974L17.3682 15.1034C16.5146 15.764 15.7423 16.5261 15.0919 17.3797L14.0859 16.9631C13.8115 16.8513 13.5269 16.7903 13.2322 16.7903C12.3278 16.7903 11.5148 17.3289 11.1693 18.1622L10.3869 20.0625C10.1633 20.6113 10.1633 21.221 10.3869 21.7697C10.6104 22.3185 11.0474 22.7453 11.5961 22.979L12.6022 23.3957C12.4599 24.4729 12.4599 25.55 12.6022 26.6171L11.5961 27.0337C11.0474 27.2573 10.6206 27.6942 10.3869 28.243C10.1633 28.7917 10.1633 29.4015 10.3869 29.9502L11.1693 31.8505C11.5148 32.6838 12.3278 33.2224 13.2322 33.2224C13.5269 33.2224 13.8115 33.1614 14.0859 33.0497L15.0919 32.633C15.7524 33.4866 16.5146 34.2589 17.3682 34.9093L16.9516 35.9154C16.4841 37.0535 17.0227 38.3543 18.1608 38.8217L20.0612 39.6042C20.3355 39.716 20.6201 39.777 20.9148 39.777C21.8192 39.777 22.6322 39.2384 22.9777 38.4051L23.3943 37.399C24.4613 37.5413 25.5487 37.5413 26.6157 37.399L27.0323 38.4051C27.3779 39.2384 28.1908 39.777 29.0953 39.777C29.39 39.777 29.6745 39.716 29.9489 39.6042L31.8492 38.8217C32.3979 38.5982 32.8247 38.1612 33.0585 37.6124C33.282 37.0637 33.282 36.454 33.0585 35.9052L32.6418 34.8992C33.4954 34.2386 34.2678 33.4765 34.9181 32.6229L35.9242 33.0395C36.1985 33.1513 36.4831 33.2123 36.7778 33.2123C37.6822 33.2123 38.4952 32.6737 38.8407 31.8404L39.6232 29.9401C39.8467 29.3913 39.8467 28.7816 39.6232 28.2328C39.3996 27.6841 38.9626 27.2573 38.4139 27.0235L37.4078 26.6069C37.5501 25.5297 37.5501 24.4525 37.4078 23.3855L38.4139 22.9689C38.9626 22.7453 39.3894 22.3083 39.6232 21.7596C39.8467 21.2108 39.8467 20.6011 39.6232 20.0524L38.8407 18.152C38.4952 17.3188 37.6822 16.7802 36.7778 16.7802C36.4831 16.7802 36.1985 16.8411 35.9242 16.9529L34.9181 17.3696C34.2576 16.5159 33.4954 15.7436 32.6418 15.0933L33.0585 14.0872C33.282 13.5385 33.282 12.9287 33.0585 12.38C32.8349 11.8312 32.3979 11.4044 31.8492 11.1707L29.9489 10.3882C29.6745 10.2764 29.39 10.2155 29.0953 10.2155C28.1908 10.2155 27.3779 10.754 27.0323 11.5975ZM28.1705 14.1075L28.892 12.3597C28.9327 12.258 29.0241 12.2275 29.0953 12.2275C29.1257 12.2275 29.1461 12.2377 29.1765 12.2479L31.0769 13.0304C31.148 13.0608 31.1785 13.1116 31.1886 13.1421C31.209 13.1828 31.2191 13.2438 31.1886 13.3047L30.4671 15.0526C30.2842 15.4997 30.4366 16.0078 30.833 16.2721C31.9813 17.0444 32.9568 18.0098 33.719 19.1581C33.9832 19.5544 34.5015 19.717 34.9385 19.5341L36.6863 18.8126C36.7168 18.8024 36.7371 18.7923 36.7676 18.7923C36.8388 18.7923 36.9302 18.8227 36.9709 18.9244L37.7533 20.8247C37.794 20.9365 37.7432 21.0584 37.6416 21.1092L35.8937 21.8307C35.4466 22.0136 35.2027 22.4811 35.2941 22.9587C35.5685 24.3103 35.5583 25.6821 35.2941 27.0439C35.2027 27.5113 35.4567 27.9889 35.8937 28.1719L37.6416 28.8934C37.7127 28.9239 37.7432 28.9747 37.7533 29.0051C37.7737 29.0458 37.7838 29.1068 37.7533 29.1677L36.9709 31.0681C36.9302 31.1697 36.8388 31.2002 36.7676 31.2002C36.7371 31.2002 36.7168 31.19 36.6863 31.1798L34.9385 30.4583C34.4913 30.2754 33.9832 30.4278 33.719 30.8242C32.9467 31.9725 31.9813 32.948 30.833 33.7102C30.4366 33.9744 30.2741 34.4927 30.457 34.9296L31.1785 36.6775C31.209 36.7487 31.1988 36.8096 31.1785 36.8401C31.1582 36.8808 31.1277 36.9316 31.0565 36.9519L29.1562 37.7344C29.1257 37.7445 29.1054 37.7547 29.0749 37.7547C29.0038 37.7547 28.9123 37.7242 28.8717 37.6226L28.1502 35.8747C27.9876 35.4886 27.6217 35.2548 27.2254 35.2548C27.1645 35.2548 27.0933 35.265 27.0323 35.2752C25.691 35.5394 24.2987 35.5394 22.9472 35.2752C22.4797 35.1837 22.0021 35.4377 21.8192 35.8747L21.0977 37.6226C21.057 37.7242 20.9656 37.7547 20.8944 37.7547C20.864 37.7547 20.8436 37.7445 20.8132 37.7344L18.9128 36.9519C18.8011 36.9113 18.7502 36.7791 18.8011 36.6674L19.5226 34.9195C19.7055 34.4724 19.5531 33.9642 19.1567 33.7C18.0084 32.9277 17.0329 31.9623 16.2707 30.814C16.0065 30.4177 15.4882 30.2551 15.0512 30.438L13.3034 31.1595C13.2729 31.1697 13.2526 31.1798 13.2221 31.1798C13.1509 31.1798 13.0595 31.1493 13.0188 31.0477L12.2364 29.1474C12.2059 29.0763 12.216 29.0153 12.2364 28.9848C12.2567 28.9442 12.2872 28.8934 12.3481 28.873L14.096 28.1515C14.5431 27.9686 14.787 27.5012 14.6956 27.0235C14.4212 25.672 14.4314 24.3001 14.6956 22.9384C14.787 22.4709 14.533 21.9933 14.096 21.8104L12.3481 21.0889C12.277 21.0584 12.2465 21.0076 12.2364 20.9771C12.216 20.9365 12.2059 20.8755 12.2364 20.8145L13.0188 18.9142C13.0595 18.8126 13.1509 18.7821 13.2221 18.7821C13.2526 18.7821 13.2729 18.7923 13.3034 18.8024L15.0512 19.5239C15.4984 19.7068 16.0065 19.5544 16.2707 19.1581C17.043 18.0098 18.0084 17.0342 19.1567 16.2721C19.5531 16.0078 19.7156 15.4896 19.5327 15.0526L18.8112 13.3047C18.7807 13.2336 18.7909 13.1726 18.8112 13.1421C18.8315 13.1015 18.862 13.0507 18.9332 13.0202L20.8335 12.2377C20.864 12.2275 20.8843 12.2174 20.9148 12.2174C20.9859 12.2174 21.0774 12.2479 21.118 12.3495L21.8395 14.0974C22.0224 14.5445 22.5001 14.7884 22.9675 14.6969C24.3089 14.4327 25.7011 14.4327 27.0527 14.6969C27.51 14.7986 27.9876 14.5547 28.1705 14.1075Z" fill="#026C7C"/>
</g>
</g>
</g>
<defs>
<clipPath id="clip0_497_730">
<rect width="50" height="50" fill="white"/>
</clipPath>
</defs>
</svg>
