<svg width="24" height="24" viewBox="0 0 24 24" fill="none" xmlns="http://www.w3.org/2000/svg">
<g id="Icon=settings, Stroke=2px" clip-path="url(#clip0_1_2005)">
<path id="Vector" d="M20.3 13.6C20.1 13.4 20 13.1 20 12.8C20 12.6 20 12.3 20 12.1C20 11.9 20 11.6 20 11.4C20 11.1 20.1 10.8 20.3 10.6L22 8.90002C22.3 8.60002 22.4 8.09995 22.2 7.69995L21 5.59998C20.8 5.19998 20.3 4.99998 19.9 5.09998L17.6 5.80005C17.3 5.90005 17 5.79998 16.7 5.59998C16.3 5.29998 15.9 5.10002 15.4 4.90002C15.1 4.80002 14.9 4.49995 14.8 4.19995L14.2 1.90002C14.1 1.50002 13.7 1.09998 13.2 1.09998H10.8C10.3 1.09998 9.90001 1.40002 9.80001 1.90002L9.20001 4.19995C9.10001 4.49995 8.90001 4.70002 8.60001 4.90002C8.10001 5.10002 7.70001 5.39998 7.30001 5.59998C7.00001 5.79998 6.70001 5.80005 6.40001 5.80005L4.10001 5.09998C3.70001 4.99998 3.20001 5.19998 3.00001 5.59998L1.80001 7.69995C1.60001 8.09995 1.60001 8.60002 2.00001 8.90002L3.70001 10.6C3.90001 10.8 4.00001 11.1 4.00001 11.4C4.00001 11.6 4.00001 11.9 4.00001 12.1C4.00001 12.3 4.00001 12.6 4.00001 12.8C4.00001 13.1 3.90001 13.4 3.70001 13.6L2.00001 15.3C1.70001 15.6 1.60001 16.1 1.80001 16.5L3.00001 18.6C3.20001 19 3.70001 19.2 4.10001 19.1L6.40001 18.4C6.70001 18.3 7.00001 18.4 7.30001 18.6C7.70001 18.9 8.10001 19.1 8.60001 19.3C8.90001 19.4 9.10001 19.7 9.20001 20L9.80001 22.3C9.90001 22.7 10.3 23.1 10.8 23.1H13.2C13.7 23.1 14.1 22.8 14.2 22.3L14.8 20C14.9 19.7 15.1 19.5 15.4 19.3C15.9 19.1 16.3 18.8 16.7 18.6C17 18.4 17.3 18.4 17.6 18.4L19.9 19.1C20.3 19.2 20.8 19 21 18.6L22.2 16.5C22.4 16.1 22.4 15.6 22 15.3L20.3 13.6Z" stroke="black" stroke-width="2" stroke-miterlimit="10" stroke-linecap="round" stroke-linejoin="round"/>
<path id="Vector_2" d="M12 15C13.6569 15 15 13.6569 15 12C15 10.3431 13.6569 9 12 9C10.3431 9 9 10.3431 9 12C9 13.6569 10.3431 15 12 15Z" stroke="black" stroke-width="2" stroke-miterlimit="10" stroke-linecap="round" stroke-linejoin="round"/>
</g>
<defs>
<clipPath id="clip0_1_2005">
<rect width="24" height="24" fill="white"/>
</clipPath>
</defs>
</svg>
