<svg width="53" height="54" viewBox="0 0 53 54" fill="none" xmlns="http://www.w3.org/2000/svg">
<g id="gallery-add">
<path id="Vector (Stroke)" fill-rule="evenodd" clip-rule="evenodd" d="M14.5884 11.8967C15.6671 11.1737 16.9353 10.7878 18.2327 10.7878C19.0657 10.7878 19.7409 11.4651 19.7409 12.3006C19.7409 13.1361 19.0657 13.8134 18.2327 13.8134C17.5319 13.8134 16.8469 14.0218 16.2642 14.4123C15.6815 14.8029 15.2274 15.3579 14.9592 16.0073C14.691 16.6567 14.6208 17.3713 14.7576 18.0607C14.8943 18.7501 15.2317 19.3834 15.7273 19.8804C16.2228 20.3775 16.8541 20.716 17.5415 20.8531C18.2288 20.9902 18.9412 20.9199 19.5887 20.6509C20.2361 20.3819 20.7895 19.9263 21.1788 19.3419C21.5681 18.7574 21.776 18.0703 21.776 17.3674C21.776 16.5319 22.4512 15.8546 23.2841 15.8546C24.1171 15.8546 24.7923 16.5319 24.7923 17.3674C24.7923 18.6687 24.4076 19.9408 23.6868 21.0228C22.9661 22.1048 21.9416 22.9481 20.743 23.4461C19.5444 23.9441 18.2254 24.0744 16.953 23.8205C15.6806 23.5666 14.5117 22.94 13.5944 22.0198C12.677 21.0997 12.0522 19.9273 11.7991 18.651C11.546 17.3747 11.6759 16.0518 12.1724 14.8495C12.6689 13.6472 13.5097 12.6197 14.5884 11.8967Z" fill="#8D98AA"/>
<path id="Vector (Stroke)_2" fill-rule="evenodd" clip-rule="evenodd" d="M51.002 19.5605C51.823 19.5605 52.4885 20.242 52.4885 21.0826V33.8271C52.4885 40.3467 51.2313 45.3064 48.0336 48.5988C44.834 51.8934 40.0117 53.1893 33.6756 53.1893H18.8246C12.4904 53.1893 7.66824 51.8939 4.4681 48.5997C1.26992 45.3076 0.0115967 40.3479 0.0115967 33.8271V28.7029C0.0115967 27.8623 0.677119 27.1809 1.49808 27.1809C2.31905 27.1809 2.98457 27.8623 2.98457 28.7029V33.8271C2.98457 40.0507 4.20373 44.0111 6.5759 46.453C8.94612 48.8928 12.7872 50.1453 18.8246 50.1453H33.6756C39.7149 50.1453 43.5559 48.8923 45.9256 46.4524C48.2973 44.0103 49.5155 40.0499 49.5155 33.8271V21.0826C49.5155 20.242 50.1811 19.5605 51.002 19.5605Z" fill="#8D98AA"/>
<path id="Vector (Stroke)_3" fill-rule="evenodd" clip-rule="evenodd" d="M4.52996 5.0494C7.77267 1.82244 12.659 0.552979 19.0821 0.552979H29.124C29.952 0.552979 30.6231 1.22089 30.6231 2.04479C30.6231 2.8687 29.952 3.53661 29.124 3.53661H19.0821C12.9548 3.53661 9.05539 4.76544 6.65 7.15915C4.24462 9.55285 3.00979 13.4333 3.00979 19.5309C3.00979 20.3548 2.33862 21.0227 1.51069 21.0227C0.682765 21.0227 0.0115967 20.3548 0.0115967 19.5309C0.0115967 13.1389 1.28725 8.27636 4.52996 5.0494Z" fill="#8D98AA"/>
<path id="Vector (Stroke)_4" fill-rule="evenodd" clip-rule="evenodd" d="M33.5385 9.32565C33.5385 8.51814 34.237 7.86353 35.0988 7.86353H49.4704C50.3322 7.86353 51.0308 8.51814 51.0308 9.32565C51.0308 10.1332 50.3322 10.7878 49.4704 10.7878H35.0988C34.237 10.7878 33.5385 10.1332 33.5385 9.32565Z" fill="#8D98AA"/>
<path id="Vector (Stroke)_5" fill-rule="evenodd" clip-rule="evenodd" d="M42.2846 0.552979C43.0897 0.552979 43.7423 1.25368 43.7423 2.11805V16.5334C43.7423 17.3977 43.0897 18.0984 42.2846 18.0984C41.4795 18.0984 40.8269 17.3977 40.8269 16.5334V2.11805C40.8269 1.25368 41.4795 0.552979 42.2846 0.552979Z" fill="#8D98AA"/>
<path id="Vector (Stroke)_6" fill-rule="evenodd" clip-rule="evenodd" d="M40.8993 29.3203L30.5827 38.2779L30.5553 38.3011C29.3011 39.3383 27.7274 39.9054 26.1032 39.9054C24.4791 39.9054 22.9054 39.3383 21.6511 38.3011C21.6376 38.2899 21.6243 38.2785 21.6112 38.2669L20.8148 37.5596C20.1479 37.0199 19.3288 36.7046 18.4733 36.6587C17.6126 36.6126 16.7596 36.8416 16.0365 37.3128L3.79748 45.6217C3.11432 46.0855 2.18648 45.9048 1.72508 45.2181C1.26369 44.5314 1.44346 43.5987 2.12662 43.135L14.3963 34.8053C15.6518 33.9822 17.1354 33.5819 18.6323 33.6622C20.1292 33.7424 21.5619 34.2992 22.7233 35.2519C22.7383 35.2642 22.7532 35.2769 22.7678 35.2899L23.5665 35.9992C24.2833 36.5848 25.1791 36.9046 26.1032 36.9046C27.0299 36.9046 27.9281 36.583 28.6459 35.9943L38.9624 27.0367L38.9898 27.0135C40.2441 25.9763 41.8178 25.4092 43.4419 25.4092C45.0661 25.4092 46.6398 25.9763 47.894 27.0135L47.9215 27.0367L51.9716 30.5537C52.5954 31.0954 52.6642 32.0428 52.1253 32.6699C51.5864 33.297 50.6438 33.3661 50.02 32.8244L45.9846 29.3202C45.2668 28.7316 44.3686 28.41 43.4419 28.41C42.5152 28.41 41.6171 28.7316 40.8993 29.3203Z" fill="#8D98AA"/>
</g>
</svg>
