<svg width="30" height="30" viewBox="0 0 30 30" fill="none" xmlns="http://www.w3.org/2000/svg">
<g id="Icon / Skills">
<path id="Star 2 (Stroke)" fill-rule="evenodd" clip-rule="evenodd" d="M13.3186 4.49441C14.0063 3.10082 15.9936 3.10082 16.6813 4.49441L18.9432 9.07752C19.0343 9.26198 19.2102 9.38984 19.4138 9.41942L24.4716 10.1544C26.0095 10.3778 26.6236 12.2678 25.5107 13.3525L21.8509 16.92C21.7036 17.0636 21.6364 17.2704 21.6711 17.4732L22.5351 22.5105C22.7978 24.0422 21.1901 25.2103 19.8146 24.4871L15.2908 22.1088C15.1087 22.0131 14.8912 22.0131 14.7091 22.1088L10.1853 24.4871C8.80976 25.2103 7.20208 24.0422 7.46478 22.5105L8.32875 17.4732C8.36353 17.2704 8.29631 17.0636 8.14901 16.92L4.48918 13.3525C3.37633 12.2678 3.99041 10.3778 5.52833 10.1544L10.5861 9.41942C10.7897 9.38984 10.9656 9.26198 11.0567 9.07752L13.3186 4.49441ZM15.5604 5.04762C15.3312 4.58309 14.6687 4.58309 14.4395 5.04762L12.1776 9.63072C11.9045 10.1841 11.3765 10.5677 10.7658 10.6564L5.70807 11.3914C5.19544 11.4659 4.99074 12.0958 5.36169 12.4574L9.02152 16.0249C9.46343 16.4556 9.66508 17.0763 9.56076 17.6845L8.69679 22.7218C8.60923 23.2324 9.14512 23.6217 9.60364 23.3807L14.1274 21.0024C14.6737 20.7152 15.3262 20.7152 15.8725 21.0024L20.3963 23.3807C20.8548 23.6217 21.3907 23.2324 21.3031 22.7218L20.4391 17.6845C20.3348 17.0763 20.5365 16.4556 20.9784 16.0249L24.6382 12.4574C25.0092 12.0958 24.8045 11.4659 24.2918 11.3914L19.2341 10.6564C18.6234 10.5677 18.0954 10.1841 17.8223 9.63072L15.5604 5.04762Z" fill="#A35EC3"/>
</g>
</svg>
